<svg width="64" height="64" viewBox="0 0 64 64" fill="none" xmlns="http://www.w3.org/2000/svg">
<g clip-path="url(#clip0)">
<path fill-rule="evenodd" clip-rule="evenodd" d="M32 59C46.9117 59 59 46.9117 59 32C59 17.0883 46.9117 5 32 5C17.0883 5 5 17.0883 5 32C5 46.9117 17.0883 59 32 59ZM15.7973 18.5C17.2885 18.5 18.4973 17.2912 18.4973 15.8C18.4973 14.3088 17.2885 13.1 15.7973 13.1C14.3062 13.1 13.0973 14.3088 13.0973 15.8C13.0973 17.2912 14.3062 18.5 15.7973 18.5ZM26.5973 18.5C28.0885 18.5 29.2973 17.2912 29.2973 15.8C29.2973 14.3088 28.0885 13.1 26.5973 13.1C25.1062 13.1 23.8973 14.3088 23.8973 15.8C23.8973 17.2912 25.1062 18.5 26.5973 18.5ZM37.3973 18.5C38.8885 18.5 40.0973 17.2912 40.0973 15.8C40.0973 14.3088 38.8885 13.1 37.3973 13.1C35.9062 13.1 34.6973 14.3088 34.6973 15.8C34.6973 17.2912 35.9062 18.5 37.3973 18.5ZM26.87 37.4C26.87 38.2947 26.1447 39.02 25.25 39.02C24.3553 39.02 23.63 38.2947 23.63 37.4C23.63 36.5053 24.3553 35.78 25.25 35.78C26.1447 35.78 26.87 36.5053 26.87 37.4ZM33.35 37.4C33.35 38.2947 32.6247 39.02 31.73 39.02C30.8353 39.02 30.11 38.2947 30.11 37.4C30.11 36.5053 30.8353 35.78 31.73 35.78C32.6247 35.78 33.35 36.5053 33.35 37.4ZM39.83 37.4C39.83 38.2947 39.1047 39.02 38.21 39.02C37.3153 39.02 36.59 38.2947 36.59 37.4C36.59 36.5053 37.3153 35.78 38.21 35.78C39.1047 35.78 39.83 36.5053 39.83 37.4Z" fill="white" fill-opacity="0.35"/>
<g filter="url(#filter0_d)">
<path fill-rule="evenodd" clip-rule="evenodd" d="M5 8.24V59L15.8 26.6H44.96C46.7494 26.6 48.2 25.1494 48.2 23.36V8.24C48.2 6.4506 46.7494 5 44.96 5H8.24C6.4506 5 5 6.4506 5 8.24ZM15.7973 18.5C17.2885 18.5 18.4973 17.2912 18.4973 15.8C18.4973 14.3088 17.2885 13.1 15.7973 13.1C14.3062 13.1 13.0973 14.3088 13.0973 15.8C13.0973 17.2912 14.3062 18.5 15.7973 18.5ZM26.5973 18.5C28.0885 18.5 29.2973 17.2912 29.2973 15.8C29.2973 14.3088 28.0885 13.1 26.5973 13.1C25.1062 13.1 23.8973 14.3088 23.8973 15.8C23.8973 17.2912 25.1062 18.5 26.5973 18.5ZM37.3973 18.5C38.8885 18.5 40.0973 17.2912 40.0973 15.8C40.0973 14.3088 38.8885 13.1 37.3973 13.1C35.9062 13.1 34.6973 14.3088 34.6973 15.8C34.6973 17.2912 35.9062 18.5 37.3973 18.5Z" fill="white"/>
<path fill-rule="evenodd" clip-rule="evenodd" d="M20.586 33.8493C20.9526 32.7452 21.9852 32 23.1485 32H39.56C41.3494 32 42.8 33.4506 42.8 35.24V39.4735C42.8 41.2545 41.3625 42.7016 39.5816 42.7135L26.6 42.8L12.236 59L20.586 33.8493ZM26.87 37.4C26.87 38.2947 26.1447 39.02 25.25 39.02C24.3553 39.02 23.63 38.2947 23.63 37.4C23.63 36.5053 24.3553 35.78 25.25 35.78C26.1447 35.78 26.87 36.5053 26.87 37.4ZM33.35 37.4C33.35 38.2947 32.6247 39.02 31.73 39.02C30.8353 39.02 30.11 38.2947 30.11 37.4C30.11 36.5053 30.8353 35.78 31.73 35.78C32.6247 35.78 33.35 36.5053 33.35 37.4ZM39.83 37.4C39.83 38.2947 39.1047 39.02 38.21 39.02C37.3153 39.02 36.59 38.2947 36.59 37.4C36.59 36.5053 37.3153 35.78 38.21 35.78C39.1047 35.78 39.83 36.5053 39.83 37.4Z" fill="white"/>
</g>
<path d="M18.4973 15.7999C18.4973 17.291 17.2885 18.4999 15.7973 18.4999C14.3062 18.4999 13.0973 17.291 13.0973 15.7999C13.0973 14.3087 14.3062 13.0999 15.7973 13.0999C17.2885 13.0999 18.4973 14.3087 18.4973 15.7999Z" fill="white" fill-opacity="0.7"/>
<path d="M29.2973 15.7999C29.2973 17.291 28.0885 18.4999 26.5973 18.4999C25.1062 18.4999 23.8973 17.291 23.8973 15.7999C23.8973 14.3087 25.1062 13.0999 26.5973 13.0999C28.0885 13.0999 29.2973 14.3087 29.2973 15.7999Z" fill="white" fill-opacity="0.7"/>
<path d="M37.3973 18.4999C38.8885 18.4999 40.0973 17.291 40.0973 15.7999C40.0973 14.3087 38.8885 13.0999 37.3973 13.0999C35.9062 13.0999 34.6973 14.3087 34.6973 15.7999C34.6973 17.291 35.9062 18.4999 37.3973 18.4999Z" fill="white" fill-opacity="0.7"/>
<path d="M26.87 37.4003C26.87 38.295 26.1447 39.0203 25.25 39.0203C24.3553 39.0203 23.63 38.295 23.63 37.4003C23.63 36.5056 24.3553 35.7803 25.25 35.7803C26.1447 35.7803 26.87 36.5056 26.87 37.4003Z" fill="white" fill-opacity="0.7"/>
<path d="M33.35 37.4003C33.35 38.295 32.6247 39.0203 31.73 39.0203C30.8353 39.0203 30.11 38.295 30.11 37.4003C30.11 36.5056 30.8353 35.7803 31.73 35.7803C32.6247 35.7803 33.35 36.5056 33.35 37.4003Z" fill="white" fill-opacity="0.7"/>
<path d="M38.21 39.0203C39.1047 39.0203 39.83 38.295 39.83 37.4003C39.83 36.5056 39.1047 35.7803 38.21 35.7803C37.3153 35.7803 36.59 36.5056 36.59 37.4003C36.59 38.295 37.3153 39.0203 38.21 39.0203Z" fill="white" fill-opacity="0.7"/>
</g>
<defs>
<filter id="filter0_d" x="2" y="5" width="49.2" height="60" filterUnits="userSpaceOnUse" color-interpolation-filters="sRGB">
<feFlood flood-opacity="0" result="BackgroundImageFix"/>
<feColorMatrix in="SourceAlpha" type="matrix" values="0 0 0 0 0 0 0 0 0 0 0 0 0 0 0 0 0 0 127 0"/>
<feOffset dy="3"/>
<feGaussianBlur stdDeviation="1.5"/>
<feColorMatrix type="matrix" values="0 0 0 0 0 0 0 0 0 0 0 0 0 0 0 0 0 0 0.25 0"/>
<feBlend mode="normal" in2="BackgroundImageFix" result="effect1_dropShadow"/>
<feBlend mode="normal" in="SourceGraphic" in2="effect1_dropShadow" result="shape"/>
</filter>
<clipPath id="clip0">
<rect width="64" height="64" fill="white"/>
</clipPath>
</defs>
</svg>
